<svg class="svg-icon" style="width: 1em; height: 1em;vertical-align: middle;fill: currentColor;overflow: hidden;" viewBox="0 0 1024 1024" version="1.1" xmlns="http://www.w3.org/2000/svg"><path d="M822.393762 109.785575h-59.384015V80.275212C763.009747 37.042651 729.050074 1.996101 687.157895 1.996101s-75.851852 35.04655-75.851852 78.279111V109.785575h-198.612086V80.275212C412.693957 37.042651 378.734285 1.996101 336.842105 1.996101s-75.851852 35.04655-75.851852 78.279111V109.785575H199.610136C89.368452 109.785575 0 199.154027 0 309.395712v514.994152c0 110.241684 89.368452 199.610136 199.610136 199.610136h622.783626c110.241684 0 199.610136-89.368452 199.610137-199.610136V309.395712c0-110.241684-89.368452-199.610136-199.610137-199.610137z m149.707603 714.604289c0 39.987899-15.572585 77.582472-43.848359 105.859243C899.976234 958.524881 862.381661 974.097466 822.393762 974.097466H199.610136c-39.987899 0-77.58347-15.572585-105.859243-43.848359C65.475119 901.972335 49.902534 864.377762 49.902534 824.389864V309.395712c0-39.987899 15.572585-77.58347 43.848359-105.859244C122.026667 175.260694 159.622238 159.688109 199.610136 159.688109h61.380117v21.525957c0 43.232561 33.959673 78.279111 75.851852 78.279111s75.851852-35.04655 75.851852-78.279111V159.688109h198.612086v21.525957c0 43.232561 33.959673 78.279111 75.851852 78.279111s75.851852-35.04655 75.851852-78.279111V159.688109H822.393762c39.987899 0 77.582472 15.572585 105.859244 43.848359C956.52878 231.812242 972.101365 269.407813 972.101365 309.395712v514.994152z" fill="#999999" /><path d="M301.411306 413.177014H161.684211c-22.048936 0-39.922027 17.87409-39.922028 39.922027v107.789474c0 22.048936 17.873092 39.922027 39.922028 39.922027h139.727095c22.048936 0 39.922027-17.873092 39.922027-39.922027v-107.789474c0-22.047938-17.873092-39.922027-39.922027-39.922027z m-19.961014 127.750487H181.645224v-67.867446h99.805068v67.867446zM580.865497 413.177014H441.138402c-22.048936 0-39.922027 17.87409-39.922028 39.922027v107.789474c0 22.048936 17.873092 39.922027 39.922028 39.922027h139.727095c22.048936 0 39.922027-17.873092 39.922027-39.922027v-107.789474c0-22.047938-17.873092-39.922027-39.922027-39.922027z m-19.961014 127.750487H461.099415v-67.867446h99.805068v67.867446zM860.319688 413.177014H720.592593c-22.048936 0-39.922027 17.87409-39.922028 39.922027v107.789474c0 22.048936 17.873092 39.922027 39.922028 39.922027h139.727095c22.048936 0 39.922027-17.873092 39.922027-39.922027v-107.789474c0-22.047938-17.873092-39.922027-39.922027-39.922027z m-19.961014 127.750487H740.553606v-67.867446h99.805068v67.867446zM301.411306 683.648749H161.684211c-22.048936 0-39.922027 17.873092-39.922028 39.922027v107.789474c0 22.048936 17.873092 39.922027 39.922028 39.922027h139.727095c22.048936 0 39.922027-17.873092 39.922027-39.922027v-107.789474c0-22.047938-17.873092-39.922027-39.922027-39.922027z m-19.961014 127.750487H181.645224v-67.867447h99.805068v67.867447zM580.865497 683.648749H441.138402c-22.048936 0-39.922027 17.873092-39.922028 39.922027v107.789474c0 22.048936 17.873092 39.922027 39.922028 39.922027h139.727095c22.048936 0 39.922027-17.873092 39.922027-39.922027v-107.789474c0-22.047938-17.873092-39.922027-39.922027-39.922027z m-19.961014 127.750487H461.099415v-67.867447h99.805068v67.867447zM860.319688 683.648749H720.592593c-22.048936 0-39.922027 17.873092-39.922028 39.922027v107.789474c0 22.048936 17.873092 39.922027 39.922028 39.922027h139.727095c22.048936 0 39.922027-17.873092 39.922027-39.922027v-107.789474c0-22.047938-17.873092-39.922027-39.922027-39.922027z m-19.961014 127.750487H740.553606v-67.867447h99.805068v67.867447z" fill="#999999" /></svg>